<?xml version="1.0" encoding="UTF-8" standalone="no"?>
<!-- Created with Inkscape (http://www.inkscape.org/) -->

<svg
   xmlns:dc="http://purl.org/dc/elements/1.1/"
   xmlns:cc="http://creativecommons.org/ns#"
   xmlns:rdf="http://www.w3.org/1999/02/22-rdf-syntax-ns#"
   xmlns:svg="http://www.w3.org/2000/svg"
   xmlns="http://www.w3.org/2000/svg"
   xmlns:sodipodi="http://sodipodi.sourceforge.net/DTD/sodipodi-0.dtd"
   xmlns:inkscape="http://www.inkscape.org/namespaces/inkscape"
   width="200"
   height="200"
   viewBox="0 0 52.916667 52.916667"
   version="1.1"
   id="svg8"
   inkscape:version="0.92.2 (unknown)"
   sodipodi:docname="portal.svg"
   inkscape:export-filename="/home/roger/git/rs_time_game/assets/images/portal.png"
   inkscape:export-xdpi="48"
   inkscape:export-ydpi="48">
  <defs
     id="defs2">
    <marker
       inkscape:stockid="Arrow1Lstart"
       orient="auto"
       refY="0"
       refX="0"
       id="marker5301"
       style="overflow:visible"
       inkscape:isstock="true">
      <path
         id="path5299"
         d="M 0,0 5,-5 -12.5,0 5,5 Z"
         style="fill:#000000;fill-opacity:1;fill-rule:evenodd;stroke:#000000;stroke-width:1.00000003pt;stroke-opacity:1"
         transform="matrix(0.8,0,0,0.8,10,0)"
         inkscape:connector-curvature="0" />
    </marker>
    <marker
       inkscape:stockid="Arrow1Lstart"
       orient="auto"
       refY="0"
       refX="0"
       id="marker5225"
       style="overflow:visible"
       inkscape:isstock="true">
      <path
         id="path5223"
         d="M 0,0 5,-5 -12.5,0 5,5 Z"
         style="fill:#000000;fill-opacity:1;fill-rule:evenodd;stroke:#000000;stroke-width:1.00000003pt;stroke-opacity:1"
         transform="matrix(0.8,0,0,0.8,10,0)"
         inkscape:connector-curvature="0" />
    </marker>
    <marker
       inkscape:stockid="Arrow1Lstart"
       orient="auto"
       refY="0"
       refX="0"
       id="marker5155"
       style="overflow:visible"
       inkscape:isstock="true">
      <path
         id="path5153"
         d="M 0,0 5,-5 -12.5,0 5,5 Z"
         style="fill:#000000;fill-opacity:1;fill-rule:evenodd;stroke:#000000;stroke-width:1.00000003pt;stroke-opacity:1"
         transform="matrix(0.8,0,0,0.8,10,0)"
         inkscape:connector-curvature="0" />
    </marker>
    <marker
       inkscape:stockid="Arrow1Lstart"
       orient="auto"
       refY="0"
       refX="0"
       id="marker5091"
       style="overflow:visible"
       inkscape:isstock="true">
      <path
         id="path5089"
         d="M 0,0 5,-5 -12.5,0 5,5 Z"
         style="fill:#000000;fill-opacity:1;fill-rule:evenodd;stroke:#000000;stroke-width:1.00000003pt;stroke-opacity:1"
         transform="matrix(0.8,0,0,0.8,10,0)"
         inkscape:connector-curvature="0" />
    </marker>
    <marker
       inkscape:stockid="Arrow1Lstart"
       orient="auto"
       refY="0"
       refX="0"
       id="marker5033"
       style="overflow:visible"
       inkscape:isstock="true">
      <path
         id="path5031"
         d="M 0,0 5,-5 -12.5,0 5,5 Z"
         style="fill:#000000;fill-opacity:1;fill-rule:evenodd;stroke:#000000;stroke-width:1.00000003pt;stroke-opacity:1"
         transform="matrix(0.8,0,0,0.8,10,0)"
         inkscape:connector-curvature="0" />
    </marker>
    <marker
       inkscape:stockid="Arrow1Lstart"
       orient="auto"
       refY="0"
       refX="0"
       id="marker4981"
       style="overflow:visible"
       inkscape:isstock="true">
      <path
         id="path4979"
         d="M 0,0 5,-5 -12.5,0 5,5 Z"
         style="fill:#000000;fill-opacity:1;fill-rule:evenodd;stroke:#000000;stroke-width:1.00000003pt;stroke-opacity:1"
         transform="matrix(0.8,0,0,0.8,10,0)"
         inkscape:connector-curvature="0" />
    </marker>
    <marker
       inkscape:stockid="Arrow1Lstart"
       orient="auto"
       refY="0"
       refX="0"
       id="marker4935"
       style="overflow:visible"
       inkscape:isstock="true">
      <path
         id="path4933"
         d="M 0,0 5,-5 -12.5,0 5,5 Z"
         style="fill:#000000;fill-opacity:1;fill-rule:evenodd;stroke:#000000;stroke-width:1.00000003pt;stroke-opacity:1"
         transform="matrix(0.8,0,0,0.8,10,0)"
         inkscape:connector-curvature="0" />
    </marker>
    <marker
       inkscape:stockid="Arrow1Lstart"
       orient="auto"
       refY="0"
       refX="0"
       id="marker4895"
       style="overflow:visible"
       inkscape:isstock="true">
      <path
         id="path4893"
         d="M 0,0 5,-5 -12.5,0 5,5 Z"
         style="fill:#000000;fill-opacity:1;fill-rule:evenodd;stroke:#000000;stroke-width:1.00000003pt;stroke-opacity:1"
         transform="matrix(0.8,0,0,0.8,10,0)"
         inkscape:connector-curvature="0" />
    </marker>
    <marker
       inkscape:stockid="Arrow1Lstart"
       orient="auto"
       refY="0"
       refX="0"
       id="marker4861"
       style="overflow:visible"
       inkscape:isstock="true">
      <path
         id="path4859"
         d="M 0,0 5,-5 -12.5,0 5,5 Z"
         style="fill:#000000;fill-opacity:1;fill-rule:evenodd;stroke:#000000;stroke-width:1.00000003pt;stroke-opacity:1"
         transform="matrix(0.8,0,0,0.8,10,0)"
         inkscape:connector-curvature="0" />
    </marker>
    <marker
       inkscape:stockid="Arrow1Lstart"
       orient="auto"
       refY="0"
       refX="0"
       id="Arrow1Lstart"
       style="overflow:visible"
       inkscape:isstock="true">
      <path
         id="path4506"
         d="M 0,0 5,-5 -12.5,0 5,5 Z"
         style="fill:#000000;fill-opacity:1;fill-rule:evenodd;stroke:#000000;stroke-width:1.00000003pt;stroke-opacity:1"
         transform="matrix(0.8,0,0,0.8,10,0)"
         inkscape:connector-curvature="0" />
    </marker>
    <marker
       inkscape:stockid="Arrow1Lend"
       orient="auto"
       refY="0"
       refX="0"
       id="Arrow1Lend"
       style="overflow:visible"
       inkscape:isstock="true">
      <path
         id="path4509"
         d="M 0,0 5,-5 -12.5,0 5,5 Z"
         style="fill:#000000;fill-opacity:1;fill-rule:evenodd;stroke:#000000;stroke-width:1.00000003pt;stroke-opacity:1"
         transform="matrix(-0.8,0,0,-0.8,-10,0)"
         inkscape:connector-curvature="0" />
    </marker>
  </defs>
  <sodipodi:namedview
     id="base"
     pagecolor="#ffffff"
     bordercolor="#666666"
     borderopacity="1.0"
     inkscape:pageopacity="0.0"
     inkscape:pageshadow="2"
     inkscape:zoom="2.8"
     inkscape:cx="54.48995"
     inkscape:cy="113.0298"
     inkscape:document-units="px"
     inkscape:current-layer="layer1"
     showgrid="false"
     units="px"
     inkscape:window-width="1920"
     inkscape:window-height="1027"
     inkscape:window-x="0"
     inkscape:window-y="0"
     inkscape:window-maximized="1" />
  <metadata
     id="metadata5">
    <rdf:RDF>
      <cc:Work
         rdf:about="">
        <dc:format>image/svg+xml</dc:format>
        <dc:type
           rdf:resource="http://purl.org/dc/dcmitype/StillImage" />
        <dc:title></dc:title>
      </cc:Work>
    </rdf:RDF>
  </metadata>
  <g
     inkscape:label="Layer 1"
     inkscape:groupmode="layer"
     id="layer1"
     transform="translate(0,-244.08333)">
    <g
       id="g3076"
       transform="matrix(1.5837245,0,0,1.5837245,45.641075,-141.69605)">
      <path
         transform="rotate(-150,-11.816507,260.00044)"
         inkscape:transform-center-y="-3.3691509"
         inkscape:transform-center-x="1.3193515"
         sodipodi:type="spiral"
         style="fill:none;fill-rule:evenodd;stroke:#000000;stroke-width:0.26458332px;stroke-linecap:butt;stroke-linejoin:miter;stroke-opacity:1"
         id="path3064"
         sodipodi:cx="-11.759859"
         sodipodi:cy="259.98315"
         sodipodi:expansion="1"
         sodipodi:revolution="1"
         sodipodi:radius="13.844264"
         sodipodi:argument="-17.278759"
         sodipodi:t0="0"
         d="m -11.759859,259.98315 c -10e-7,2.08239 -2.807018,1.02738 -3.461066,0 -1.772429,-2.78413 0.779517,-6.06856 3.46107,-6.92213 4.79667,-1.52682 9.4126016,2.34832 10.3831939,6.92214 1.42438335,6.71227 -3.9241309,12.81627 -10.3832059,13.84426" />
      <path
         d="m -11.759859,259.98315 c -10e-7,2.08239 -2.807018,1.02738 -3.461066,0 -1.772429,-2.78413 0.779517,-6.06856 3.46107,-6.92213 4.79667,-1.52682 9.4126016,2.34832 10.3831939,6.92214 1.42438335,6.71227 -3.9241309,12.81627 -10.3832059,13.84426"
         sodipodi:t0="0"
         sodipodi:argument="-17.278759"
         sodipodi:radius="13.844264"
         sodipodi:revolution="1"
         sodipodi:expansion="1"
         sodipodi:cy="259.98315"
         sodipodi:cx="-11.759859"
         id="path3066"
         style="fill:none;fill-rule:evenodd;stroke:#000000;stroke-width:0.26458332px;stroke-linecap:butt;stroke-linejoin:miter;stroke-opacity:1"
         sodipodi:type="spiral"
         inkscape:transform-center-x="-3.3691517"
         inkscape:transform-center-y="-1.3193515"
         transform="rotate(-60,-11.816509,260.00044)" />
      <path
         transform="rotate(15,-11.816497,260.00044)"
         inkscape:transform-center-y="3.3708126"
         inkscape:transform-center-x="-3.2884906"
         sodipodi:type="spiral"
         style="fill:none;fill-rule:evenodd;stroke:#000000;stroke-width:0.26458332px;stroke-linecap:butt;stroke-linejoin:miter;stroke-opacity:1"
         id="path3068"
         sodipodi:cx="-11.759859"
         sodipodi:cy="259.98315"
         sodipodi:expansion="1"
         sodipodi:revolution="1"
         sodipodi:radius="13.844264"
         sodipodi:argument="-17.278759"
         sodipodi:t0="0"
         d="m -11.759859,259.98315 c -10e-7,2.08239 -2.807018,1.02738 -3.461066,0 -1.772429,-2.78413 0.779517,-6.06856 3.46107,-6.92213 4.79667,-1.52682 9.4126016,2.34832 10.3831939,6.92214 1.42438335,6.71227 -3.9241309,12.81627 -10.3832059,13.84426" />
      <path
         d="m -11.759859,259.98315 c -10e-7,2.08239 -2.807018,1.02738 -3.461066,0 -1.772429,-2.78413 0.779517,-6.06856 3.46107,-6.92213 4.79667,-1.52682 9.4126016,2.34832 10.3831939,6.92214 1.42438335,6.71227 -3.9241309,12.81627 -10.3832059,13.84426"
         sodipodi:t0="0"
         sodipodi:argument="-17.278759"
         sodipodi:radius="13.844264"
         sodipodi:revolution="1"
         sodipodi:expansion="1"
         sodipodi:cy="259.98315"
         sodipodi:cx="-11.759859"
         id="path3070"
         style="fill:none;fill-rule:evenodd;stroke:#000000;stroke-width:0.26458332px;stroke-linecap:butt;stroke-linejoin:miter;stroke-opacity:1"
         sodipodi:type="spiral"
         inkscape:transform-center-x="3.3708122"
         inkscape:transform-center-y="3.288491"
         transform="rotate(105,-11.816506,260.00044)" />
    </g>
  </g>
</svg>
